RobotoSerifDisplay-SuperWidth300.ufo
<glyph name="eight" format="2">
  <advance width="422.8"/>
  <unicode hex="0038"/>
  <outline>
    <contour>
      <point x="211.4" y="36.400000000000006" type="curve" smooth="yes"/>
      <point x="197.195" y="36.400000000000006"/>
      <point x="191.57" y="79.41534883720931"/>
      <point x="191.57" y="197.6" type="curve" smooth="yes"/>
      <point x="191.57" y="313.0"/>
      <point x="196.045" y="353.2"/>
      <point x="211.4" y="353.2" type="curve" smooth="yes"/>
      <point x="226.755" y="353.2"/>
      <point x="231.23000000000002" y="313.0"/>
      <point x="231.23000000000002" y="197.6" type="curve" smooth="yes"/>
      <point x="231.23000000000002" y="79.41534883720931"/>
      <point x="225.605" y="36.400000000000006"/>
    </contour>
    <contour>
      <point x="211.4" y="-10.0" type="curve" smooth="yes"/>
      <point x="344.895" y="-10.0"/>
      <point x="420.2" y="75.6"/>
      <point x="420.2" y="200.8" type="curve" smooth="yes"/>
      <point x="420.2" y="324.2"/>
      <point x="341.4" y="396.0"/>
      <point x="211.4" y="396.0" type="curve" smooth="yes"/>
      <point x="81.4" y="396.0"/>
      <point x="2.6000000000000085" y="324.26590673576"/>
      <point x="2.6000000000000085" y="200.8" type="curve" smooth="yes"/>
      <point x="2.6000000000000085" y="75.553364928912"/>
      <point x="77.905" y="-10.0"/>
    </contour>
    <contour>
      <point x="211.4" y="398.8" type="curve" smooth="yes"/>
      <point x="197.875" y="398.8"/>
      <point x="192.365" y="432.6"/>
      <point x="192.365" y="534.0" type="curve" smooth="yes"/>
      <point x="192.365" y="641.3826315789473"/>
      <point x="197.875" y="673.6"/>
      <point x="211.4" y="673.6" type="curve" smooth="yes"/>
      <point x="224.925" y="673.6"/>
      <point x="230.435" y="641.3826315789473"/>
      <point x="230.435" y="534.0" type="curve" smooth="yes"/>
      <point x="230.435" y="432.6"/>
      <point x="224.925" y="398.8"/>
    </contour>
    <contour>
      <point x="211.4" y="361.0" type="curve" smooth="yes"/>
      <point x="332.74" y="361.0"/>
      <point x="403.03" y="427.2"/>
      <point x="403.03" y="539.0" type="curve" smooth="yes"/>
      <point x="403.03" y="645.4"/>
      <point x="331.59" y="720.0"/>
      <point x="211.4" y="720.0" type="curve" smooth="yes"/>
      <point x="91.21000000000001" y="720.0"/>
      <point x="19.770000000000003" y="645.4"/>
      <point x="19.770000000000003" y="539.0" type="curve" smooth="yes"/>
      <point x="19.770000000000003" y="427.2"/>
      <point x="90.06" y="361.0"/>
    </contour>
  </outline>
</glyph>
<glyph name="C" format="2">
  <advance width="517"/>
  <unicode hex="0043"/>
  <outline>
    <contour>
      <point x="333.625" y="666.4" type="curve" smooth="yes"/>
      <point x="396.245" y="666.4"/>
      <point x="436.8442945441699" y="594.4662574586563"/>
      <point x="449.505" y="497.6" type="curve"/>
      <point x="486.49" y="497.6" type="line"/>
      <point x="486.49" y="710.0" type="line"/>
      <point x="446.905" y="710.0" type="line"/>
      <point x="432.565" y="579.6" type="line"/>
      <point x="472.46999999999997" y="556.8" type="line"/>
      <point x="453.2354076743063" y="648.2712591120383"/>
      <point x="408.2933613445378" y="720.0"/>
      <point x="284.52" y="720.0" type="curve" smooth="yes"/>
      <point x="142.605" y="720.0"/>
      <point x="19.425" y="573.6"/>
      <point x="19.425" y="355.0" type="curve" smooth="yes"/>
      <point x="19.425" y="137.2"/>
      <point x="134.865" y="-10.0"/>
      <point x="299.28499999999997" y="-10.0" type="curve" smooth="yes"/>
      <point x="424.40999999999997" y="-10.0"/>
      <point x="481.51" y="89.4"/>
      <point x="502.625" y="235.0" type="curve"/>
      <point x="463.845" y="253.60000000000002" type="line"/>
      <point x="447.61697770316493" y="124.8078737895647"/>
      <point x="399.3413157894737" y="41.6"/>
      <point x="341.905" y="41.6" type="curve" smooth="yes"/>
      <point x="273.4719" y="41.6"/>
      <point x="242.92999999999998" y="125.41331306990881"/>
      <point x="242.92999999999998" y="355.0" type="curve" smooth="yes"/>
      <point x="242.92999999999998" y="561.9874924471299"/>
      <point x="266.38" y="666.4"/>
    </contour>
  </outline>
</glyph>
<glyph name="J" format="2">
  <advance width="482.485"/>
  <unicode hex="004A"/>
  <outline>
    <contour>
      <point x="168.885" y="710.0" type="line"/>
      <point x="168.885" y="670.4" type="line"/>
      <point x="182.88" y="670.4" type="line" smooth="yes"/>
      <point x="203.11" y="670.4"/>
      <point x="217.29" y="667.4"/>
      <point x="217.29" y="638.4" type="curve" smooth="yes"/>
      <point x="217.29" y="190.8" type="line" smooth="yes"/>
      <point x="217.29" y="71.575342465754"/>
      <point x="201.155" y="41.0"/>
      <point x="169.58499999999998" y="41.0" type="curve" smooth="yes"/>
      <point x="151.07999999999998" y="41.0"/>
      <point x="134.64499999999998" y="55.4"/>
      <point x="123.94999999999999" y="74.4" type="curve"/>
      <point x="125.147495693781" y="70.02635580688"/>
      <point x="131.353022310695" y="44.602936270586"/>
      <point x="143.995" y="34.6" type="curve"/>
      <point x="143.995" y="193.2" type="line"/>
      <point x="1.1400000000000006" y="193.2" type="line"/>
      <point x="1.1400000000000006" y="58.0" type="line"/>
      <point x="35.825" y="25.8"/>
      <point x="104.435" y="-10.0"/>
      <point x="202.82" y="-10.0" type="curve" smooth="yes"/>
      <point x="334.66" y="-10.0"/>
      <point x="432.54999999999995" y="46.8"/>
      <point x="432.54999999999995" y="231.6" type="curve" smooth="yes"/>
      <point x="432.54999999999995" y="638.4" type="line" smooth="yes"/>
      <point x="432.54999999999995" y="667.4"/>
      <point x="444.085" y="670.4"/>
      <point x="460.865" y="670.4" type="curve" smooth="yes"/>
      <point x="468.455" y="670.4" type="line"/>
      <point x="468.455" y="710.0" type="line"/>
    </contour>
  </outline>
</glyph>
<glyph name="W" format="2">
  <advance width="767.65"/>
  <unicode hex="0057"/>
  <outline>
    <contour>
      <point x="7.05" y="710.0" type="line"/>
      <point x="7.05" y="670.4" type="line"/>
      <point x="12.95" y="670.4" type="line" smooth="yes"/>
      <point x="33.455" y="670.4"/>
      <point x="40.275" y="664.8"/>
      <point x="43.575" y="641.4" type="curve" smooth="yes"/>
      <point x="151.3" y="0.0" type="line"/>
      <point x="302.71" y="0.0" type="line"/>
      <point x="397.315" y="488.6" type="line"/>
      <point x="375.625" y="488.6" type="line"/>
      <point x="472.195" y="0.0" type="line"/>
      <point x="621.065" y="0.0" type="line"/>
      <point x="726.235" y="621.4" type="line" smooth="yes"/>
      <point x="730.4449999999999" y="658.0"/>
      <point x="734.54" y="670.4"/>
      <point x="755.24" y="670.4" type="curve" smooth="yes"/>
      <point x="759.795" y="670.4" type="line"/>
      <point x="759.795" y="710.0" type="line"/>
      <point x="654.725" y="710.0" type="line"/>
      <point x="654.725" y="670.4" type="line"/>
      <point x="664.26" y="670.4" type="line" smooth="yes"/>
      <point x="672.035" y="670.4"/>
      <point x="687.975" y="664.6"/>
      <point x="687.975" y="655.0" type="curve"/>
      <point x="613.335" y="158.60000000000002" type="line"/>
      <point x="640.855" y="159.4" type="line"/>
      <point x="533.2" y="710.0" type="line"/>
      <point x="418.70500000000004" y="710.0" type="line"/>
      <point x="301.48" y="152.0" type="line"/>
      <point x="329.195" y="155.20000000000002" type="line"/>
      <point x="263.66499999999996" y="660.4" type="line"/>
      <point x="263.66499999999996" y="667.4"/>
      <point x="273.855" y="670.4"/>
      <point x="286.69000000000005" y="670.4" type="curve" smooth="yes"/>
      <point x="296.34999999999997" y="670.4" type="line"/>
      <point x="296.34999999999997" y="710.0" type="line"/>
    </contour>
  </outline>
</glyph>
<glyph name="X" format="2">
  <advance width="539"/>
  <unicode hex="0058"/>
  <outline>
    <contour>
      <point x="15.285" y="670.4" type="line"/>
      <point x="18.435000000000002" y="670.4" type="line" smooth="yes"/>
      <point x="29.270000000000003" y="670.4"/>
      <point x="36.434999999999995" y="665.0"/>
      <point x="45.44" y="641.0" type="curve" smooth="yes"/>
      <point x="181.5" y="318.0" type="line"/>
      <point x="185.25" y="314.4" type="line"/>
      <point x="277.945" y="50.0" type="line"/>
      <point x="277.945" y="43.0"/>
      <point x="266.65" y="39.6"/>
      <point x="258.22" y="39.6" type="curve" smooth="yes"/>
      <point x="247.91500000000002" y="39.6" type="line"/>
      <point x="247.91500000000002" y="0.0" type="line"/>
      <point x="533.49" y="0.0" type="line"/>
      <point x="533.49" y="39.6" type="line"/>
      <point x="526.245" y="39.6" type="line" smooth="yes"/>
      <point x="519.655" y="39.6"/>
      <point x="512.535" y="44.400000000000006"/>
      <point x="505.325" y="64.8" type="curve" smooth="yes"/>
      <point x="365.985" y="412.2" type="line"/>
      <point x="362.19" y="415.0" type="line"/>
      <point x="275.615" y="660.0" type="line"/>
      <point x="275.615" y="667.0"/>
      <point x="286.61" y="670.4"/>
      <point x="296.19" y="670.4" type="curve" smooth="yes"/>
      <point x="305.24" y="670.4" type="line"/>
      <point x="305.24" y="710.0" type="line"/>
      <point x="15.285" y="710.0" type="line"/>
    </contour>
    <contour>
      <point x="4.520000000000001" y="0.0" type="line"/>
      <point x="114.73" y="0.0" type="line"/>
      <point x="114.73" y="39.6" type="line"/>
      <point x="107.715" y="39.6" type="line" smooth="yes"/>
      <point x="100.411842105275" y="39.6"/>
      <point x="86.345" y="45.62727272727"/>
      <point x="86.345" y="55.400000000000006" type="curve"/>
      <point x="228.41" y="348.6" type="line"/>
      <point x="199.625" y="385.2" type="line"/>
      <point x="45" y="80" type="line" smooth="yes"/>
      <point x="31" y="52"/>
      <point x="20.725" y="39.6"/>
      <point x="11.420000000000002" y="39.6" type="curve" smooth="yes"/>
      <point x="4.520000000000001" y="39.6" type="line"/>
    </contour>
    <contour>
      <point x="348.355" y="352.6" type="line"/>
      <point x="482" y="636" type="line" smooth="yes"/>
      <point x="494" y="661"/>
      <point x="505.025" y="670.4"/>
      <point x="517.515" y="670.4" type="curve" smooth="yes"/>
      <point x="519.275" y="670.4" type="line"/>
      <point x="519.275" y="710.0" type="line"/>
      <point x="409.02" y="710.0" type="line"/>
      <point x="409.02" y="670.4" type="line"/>
      <point x="416.38" y="670.4" type="line" smooth="yes"/>
      <point x="423.155" y="670.4"/>
      <point x="439.9" y="664.8"/>
      <point x="439.9" y="653.4" type="curve"/>
      <point x="318.22499999999997" y="387.4" type="line"/>
    </contour>
  </outline>
</glyph>
<glyph name="a" format="2">
  <advance width="476"/>
  <unicode hex="0061"/>
  <outline>
    <contour>
      <point x="266" y="315" type="line"/>
      <point x="97" y="289"/>
      <point x="10" y="244"/>
      <point x="10" y="131.0" type="curve" smooth="yes"/>
      <point x="10" y="38"/>
      <point x="51" y="-10.0"/>
      <point x="138" y="-10.0" type="curve" smooth="yes"/>
      <point x="207" y="-10.0"/>
      <point x="247" y="27"/>
      <point x="266" y="86" type="curve"/>
      <point x="266" y="156" type="line"/>
      <point x="256" y="101"/>
      <point x="238" y="67"/>
      <point x="222" y="67" type="curve" smooth="yes"/>
      <point x="203" y="67"/>
      <point x="192" y="91"/>
      <point x="192" y="148" type="curve" smooth="yes"/>
      <point x="192" y="228"/>
      <point x="215" y="261"/>
      <point x="266" y="275" type="curve"/>
    </contour>
    <contour>
      <point x="261" y="0.0" type="line"/>
      <point x="469" y="0.0" type="line"/>
      <point x="469" y="38.0" type="line"/>
      <point x="460" y="40" type="line" smooth="yes"/>
      <point x="449" y="43"/>
      <point x="447" y="47"/>
      <point x="447" y="65" type="curve" smooth="yes"/>
      <point x="447" y="349" type="line" smooth="yes"/>
      <point x="447" y="476.0"/>
      <point x="367" y="533"/>
      <point x="238" y="533" type="curve" smooth="yes"/>
      <point x="126" y="533"/>
      <point x="64" y="488.0"/>
      <point x="42" y="467.0" type="curve"/>
      <point x="42" y="354" type="line"/>
      <point x="180" y="354" type="line"/>
      <point x="180" y="498" type="line"/>
      <point x="173" y="498"/>
      <point x="162" y="459"/>
      <point x="163" y="449" type="curve"/>
      <point x="168" y="471"/>
      <point x="188" y="486.0"/>
      <point x="212" y="486" type="curve" smooth="yes"/>
      <point x="241" y="486"/>
      <point x="251" y="464"/>
      <point x="251" y="417.0" type="curve" smooth="yes"/>
      <point x="251" y="92" type="line"/>
      <point x="261" y="93" type="line"/>
    </contour>
  </outline>
</glyph>
<glyph name="r" format="2">
  <advance width="374"/>
  <unicode hex="0072"/>
  <outline>
    <contour>
      <point x="358.2" y="524.2" type="line"/>
      <point x="353.405" y="527.0"/>
      <point x="342.755" y="529.6"/>
      <point x="328.265" y="529.6" type="curve" smooth="yes"/>
      <point x="265.335" y="529.6"/>
      <point x="233.18" y="456.4"/>
      <point x="218.09" y="361.2" type="curve"/>
      <point x="218.09" y="311.0" type="line"/>
      <point x="236.70999999999998" y="346.6"/>
      <point x="279.87" y="360.0"/>
      <point x="308.56499999999994" y="360.0" type="curve" smooth="yes"/>
      <point x="324.66499999999996" y="360.0"/>
      <point x="344.515" y="356.6"/>
      <point x="358.2" y="352.0" type="curve"/>
    </contour>
    <contour>
      <point x="9.88" y="0.0" type="line"/>
      <point x="270.81" y="0.0" type="line"/>
      <point x="270.81" y="37.2" type="line"/>
      <point x="262.195" y="37.2" type="line" smooth="yes"/>
      <point x="252.42188679245282" y="37.2"/>
      <point x="233.535" y="39.6"/>
      <point x="233.535" y="45.6" type="curve" smooth="yes"/>
      <point x="233.535" y="348.2" type="line"/>
      <point x="222.3" y="346.4" type="line"/>
      <point x="222.3" y="522.8" type="line"/>
      <point x="9.88" y="522.8" type="line"/>
      <point x="9.88" y="484.8" type="line"/>
      <point x="17.630000000000003" y="482.8" type="line" smooth="yes"/>
      <point x="28.385" y="478.0"/>
      <point x="30.305" y="473.2"/>
      <point x="30.305" y="454.6" type="curve" smooth="yes"/>
      <point x="30.305" y="62.8" type="line" smooth="yes"/>
      <point x="30.305" y="41.0"/>
      <point x="21.725" y="37.2"/>
      <point x="10.88" y="37.2" type="curve" smooth="yes"/>
      <point x="9.88" y="37.2" type="line"/>
    </contour>
  </outline>
</glyph>
<glyph name="registered" format="2">
  <advance width="650.265"/>
  <unicode hex="00AE"/>
  <outline>
    <contour>
      <point x="103.25999999999999" y="355.0" type="curve" smooth="yes"/>
      <point x="103.25999999999999" y="533.4"/>
      <point x="191.25" y="672.2"/>
      <point x="325.035" y="672.2" type="curve" smooth="yes"/>
      <point x="458.015" y="672.2"/>
      <point x="547.005" y="533.4"/>
      <point x="547.005" y="355.0" type="curve" smooth="yes"/>
      <point x="547.005" y="176.6"/>
      <point x="458.015" y="37.800000000000004"/>
      <point x="325.035" y="37.800000000000004" type="curve" smooth="yes"/>
      <point x="191.25" y="37.800000000000004"/>
      <point x="103.25999999999999" y="176.6"/>
    </contour>
    <contour>
      <point x="21.92" y="355.0" type="curve" smooth="yes"/>
      <point x="21.92" y="133.2"/>
      <point x="148.965" y="-37.6"/>
      <point x="325.035" y="-37.6" type="curve" smooth="yes"/>
      <point x="502.21" y="-37.6"/>
      <point x="629.15" y="133.2"/>
      <point x="629.15" y="355.0" type="curve" smooth="yes"/>
      <point x="629.15" y="576.8"/>
      <point x="502.21" y="747.6"/>
      <point x="325.035" y="747.6" type="curve" smooth="yes"/>
      <point x="148.965" y="747.6"/>
      <point x="21.92" y="576.8"/>
    </contour>
    <contour>
      <point x="173.725" y="152.2" type="line"/>
      <point x="325.69" y="152.2" type="line"/>
      <point x="325.69" y="208.8" type="line"/>
      <point x="320.55" y="208.8" type="line" smooth="yes"/>
      <point x="314.73" y="208.8"/>
      <point x="312.35" y="210.6"/>
      <point x="312.35" y="214.6" type="curve" smooth="yes"/>
      <point x="312.35" y="309.8" type="line"/>
      <point x="338.40999999999997" y="309.8" type="line" smooth="yes"/>
      <point x="430.515" y="309.8"/>
      <point x="473.585" y="359.20425196852"/>
      <point x="473.585" y="437.4" type="curve" smooth="yes"/>
      <point x="473.585" y="512.59092436976"/>
      <point x="435.265" y="557.0"/>
      <point x="340.71" y="557.0" type="curve" smooth="yes"/>
      <point x="173.725" y="557.0" type="line"/>
      <point x="173.725" y="499.6" type="line"/>
      <point x="176.83" y="499.6" type="line" smooth="yes"/>
      <point x="186.905" y="499.6"/>
      <point x="196.565" y="495.6"/>
      <point x="196.565" y="479.6" type="curve" smooth="yes"/>
      <point x="196.565" y="228.8" type="line" smooth="yes"/>
      <point x="196.565" y="212.8"/>
      <point x="186.905" y="208.8"/>
      <point x="176.83" y="208.8" type="curve" smooth="yes"/>
      <point x="173.725" y="208.8" type="line"/>
    </contour>
    <contour>
      <point x="318.445" y="493.4" type="line" smooth="yes"/>
      <point x="343.735" y="493.4"/>
      <point x="358.145" y="475.02426966292"/>
      <point x="358.145" y="429.4" type="curve" smooth="yes"/>
      <point x="358.145" y="381.82103092784"/>
      <point x="343.735" y="357.4"/>
      <point x="316.145" y="357.4" type="curve" smooth="yes"/>
      <point x="312.35" y="357.4" type="line"/>
      <point x="312.35" y="493.4" type="line"/>
    </contour>
    <contour>
      <point x="311.81" y="335.0" type="line"/>
      <point x="361.09" y="152.0" type="line"/>
      <point x="479.865" y="152.0" type="line"/>
      <point x="479.865" y="208.6" type="line"/>
      <point x="476.46" y="208.6" type="line" smooth="yes"/>
      <point x="468.34" y="208.6"/>
      <point x="464.085" y="211.6"/>
      <point x="459.485" y="224.6" type="curve" smooth="yes"/>
      <point x="409.125" y="375.2" type="line"/>
    </contour>
  </outline>
</glyph>
<glyph name="uhorn" format="2">
  <advance width="565.24"/>
  <unicode hex="01B0"/>
  <anchor x="217.29999999999998" y="545.0" name="top"/>
  <outline>
    <contour>
      <point x="231.315" y="514.8" type="line"/>
      <point x="8.51" y="514.8" type="line"/>
      <point x="8.51" y="444.8" type="line"/>
      <point x="12.765" y="442.8" type="line" smooth="yes"/>
      <point x="24.67" y="436.4"/>
      <point x="28.890000000000008" y="431.6"/>
      <point x="28.890000000000008" y="413.0" type="curve" smooth="yes"/>
      <point x="28.890000000000008" y="167.0" type="line" smooth="yes"/>
      <point x="28.890000000000008" y="52.0"/>
      <point x="82.42500000000001" y="-10.0"/>
      <point x="163.755" y="-10.0" type="curve" smooth="yes"/>
      <point x="230.515" y="-10.0"/>
      <point x="290.58" y="39.6"/>
      <point x="314.065" y="139.8" type="curve"/>
      <point x="290.535" y="183.0" type="line"/>
      <point x="281.38" y="130.6"/>
      <point x="268.43" y="97.4"/>
      <point x="250.81" y="97.4" type="curve" smooth="yes"/>
      <point x="235.905" y="97.4"/>
      <point x="231.315" y="117.80000000000001"/>
      <point x="231.315" y="163.0" type="curve" smooth="yes"/>
    </contour>
    <contour>
      <point x="492.19" y="514.8" type="line"/>
      <point x="426.525" y="496.4"/>
      <point x="420.21" y="496.0"/>
      <point x="371.90999999999997" y="471.2" type="curve"/>
      <point x="539.905" y="472.8"/>
      <point x="588.735" y="524.8"/>
      <point x="588.735" y="682.0" type="curve"/>
      <point x="458.875" y="682.0" type="line"/>
      <point x="456.57500000000005" y="546.0"/>
      <point x="425.95" y="514.8"/>
      <point x="338.375" y="514.8" type="curve" smooth="yes"/>
      <point x="256.435" y="514.8" type="line"/>
      <point x="256.435" y="444.8" type="line"/>
      <point x="263.06" y="442.8" type="line" smooth="yes"/>
      <point x="274.86" y="438.8"/>
      <point x="289.765" y="431.6"/>
      <point x="289.765" y="413.0" type="curve" smooth="yes"/>
      <point x="289.765" y="108.2" type="line"/>
      <point x="301.0" y="117.8" type="line"/>
      <point x="301.0" y="0.0" type="line"/>
      <point x="512.5699999999999" y="0.0" type="line"/>
      <point x="512.5699999999999" y="70.0" type="line"/>
      <point x="507.28" y="71.6" type="line" smooth="yes"/>
      <point x="495.135" y="76.4"/>
      <point x="492.19" y="81.0"/>
      <point x="492.19" y="99.6" type="curve" smooth="yes"/>
    </contour>
  </outline>
</glyph>
<glyph name="Delta" format="2">
  <advance width="608.15"/>
  <unicode hex="0394"/>
  <outline>
    <contour>
      <point x="17.515" y="0.0" type="line"/>
      <point x="590.53" y="0.0" type="line"/>
      <point x="590.53" y="125.0" type="line"/>
      <point x="380.085" y="710.0" type="line"/>
      <point x="228.065" y="710.0" type="line"/>
      <point x="17.515" y="125.0" type="line"/>
    </contour>
    <contour>
      <point x="399.295" y="71.0" type="line"/>
      <point x="510.305" y="144.4" type="line"/>
      <point x="58.18" y="144.4" type="line"/>
      <point x="82.47999999999999" y="94.0" type="line"/>
      <point x="294.73" y="691.0" type="line"/>
      <point x="209.055" y="646.2" type="line"/>
    </contour>
  </outline>
</glyph>
<glyph name="pi" format="2">
  <advance width="654.61"/>
  <unicode hex="03C0"/>
  <outline>
    <contour>
      <point x="317.73" y="0.0" type="line"/>
      <point x="317.73" y="456.0" type="line"/>
      <point x="195.07999999999998" y="456.0" type="line"/>
      <point x="188.329773830239" y="199.6081421113963"/>
      <point x="159.855" y="174.4"/>
      <point x="159.855" y="0.0" type="curve"/>
    </contour>
    <contour>
      <point x="596.235" y="367.6" type="line"/>
      <point x="596.235" y="514.8" type="line"/>
      <point x="222.98" y="514.8" type="line" smooth="yes"/>
      <point x="86.035" y="514.8"/>
      <point x="36.33" y="430.0"/>
      <point x="12.835" y="309.8" type="curve"/>
      <point x="113.725" y="262.0" type="line"/>
      <point x="127.65728035653319" y="329.97796893741446"/>
      <point x="143.44217391304346" y="367.6"/>
      <point x="206.545" y="367.6" type="curve" smooth="yes"/>
    </contour>
    <contour>
      <point x="504.83000000000004" y="138.4" type="curve" smooth="yes"/>
      <point x="504.83000000000004" y="456.0" type="line"/>
      <point x="381.33" y="456.0" type="line"/>
      <point x="369.18514379376427" y="278.5953410820365"/>
      <point x="343.16" y="212.2"/>
      <point x="343.16" y="140.0" type="curve" smooth="yes"/>
      <point x="343.16" y="38.2"/>
      <point x="407.4" y="-10.0"/>
      <point x="488.65" y="-10.0" type="curve" smooth="yes"/>
      <point x="564.39" y="-10.0"/>
      <point x="609.505" y="42.4"/>
      <point x="632.345" y="129.8" type="curve"/>
      <point x="566.3" y="164.4" type="line"/>
      <point x="554.3530164842109" y="120.22141258564504"/>
      <point x="542.5724431818181" y="89.0"/>
      <point x="526.405" y="89.0" type="curve" smooth="yes"/>
      <point x="512.52" y="89.0"/>
      <point x="504.83000000000004" y="102.17341772151899"/>
    </contour>
  </outline>
</glyph>
<glyph name="ruble" format="2">
  <advance width="422.8"/>
  <unicode hex="20BD"/>
  <outline>
    <contour>
      <point x="6.050000000000001" y="377.4" type="line"/>
      <point x="206.755" y="377.4" type="line" smooth="yes"/>
      <point x="230.505" y="377.4"/>
      <point x="247.79" y="421.2"/>
      <point x="247.79" y="508.6" type="curve" smooth="yes"/>
      <point x="247.79" y="592.8"/>
      <point x="230.505" y="629.2"/>
      <point x="210.355" y="629.2" type="curve" smooth="yes"/>
      <point x="213.86" y="629.2" type="line"/>
      <point x="213.86" y="81.6" type="line"/>
      <point x="213.86" y="74.6"/>
      <point x="227.695" y="71.6"/>
      <point x="239.23" y="71.6" type="curve" smooth="yes"/>
      <point x="245.935" y="71.6" type="line"/>
      <point x="245.935" y="0.0" type="line"/>
      <point x="6.050000000000001" y="0.0" type="line"/>
      <point x="6.050000000000001" y="71.6" type="line"/>
      <point x="10.650000000000002" y="71.6" type="line" smooth="yes"/>
      <point x="22.795" y="71.6"/>
      <point x="30.685000000000002" y="78.6"/>
      <point x="30.685000000000002" y="107.6" type="curve" smooth="yes"/>
      <point x="30.685000000000002" y="602.4" type="line" smooth="yes"/>
      <point x="30.685000000000002" y="631.4"/>
      <point x="22.945000000000007" y="638.4"/>
      <point x="10.650000000000002" y="638.4" type="curve" smooth="yes"/>
      <point x="6.050000000000001" y="638.4" type="line"/>
      <point x="6.050000000000001" y="710.0" type="line"/>
      <point x="218.485" y="710.0" type="line" smooth="yes"/>
      <point x="352.09499999999997" y="710.0"/>
      <point x="423.685" y="639.4"/>
      <point x="423.685" y="512.8" type="curve" smooth="yes"/>
      <point x="423.685" y="382.8"/>
      <point x="346.3" y="304.6"/>
      <point x="218.68" y="304.6" type="curve" smooth="yes"/>
      <point x="6.050000000000001" y="304.6" type="line"/>
    </contour>
    <contour>
      <point x="289.58" y="167.2" type="line"/>
      <point x="6.050000000000001" y="167.2" type="line"/>
      <point x="6.050000000000001" y="240.0" type="line"/>
      <point x="289.58" y="240.0" type="line"/>
    </contour>
  </outline>
</glyph>
<glyph name="servicemark" format="2">
  <advance width="717.115"/>
  <unicode hex="2120"/>
  <outline>
    <contour>
      <point x="309.83" y="374.2" type="line"/>
      <point x="391.91999999999996" y="374.2" type="line"/>
      <point x="391.91999999999996" y="416.4" type="line"/>
      <point x="389.47" y="416.4" type="line" smooth="yes"/>
      <point x="381.57" y="416.4"/>
      <point x="374.405" y="417.8"/>
      <point x="374.405" y="420.6" type="curve" smooth="yes"/>
      <point x="374.405" y="701.2" type="line"/>
      <point x="365.66499999999996" y="700.2" type="line"/>
      <point x="430.975" y="373.2" type="line"/>
      <point x="504.06" y="373.2" type="line"/>
      <point x="572.97" y="699.4" type="line"/>
      <point x="563.47" y="700.2" type="line"/>
      <point x="563.47" y="420.6" type="line" smooth="yes"/>
      <point x="563.47" y="417.8"/>
      <point x="557.11" y="416.4"/>
      <point x="549.36" y="416.4" type="curve" smooth="yes"/>
      <point x="546.715" y="416.4" type="line"/>
      <point x="546.715" y="374.2" type="line"/>
      <point x="688.375" y="374.2" type="line"/>
      <point x="688.375" y="416.4" type="line"/>
      <point x="686.12" y="416.4" type="line" smooth="yes"/>
      <point x="677.805" y="416.4"/>
      <point x="672.595" y="419.6"/>
      <point x="672.595" y="432.6" type="curve" smooth="yes"/>
      <point x="672.595" y="651.8" type="line" smooth="yes"/>
      <point x="672.595" y="665.8"/>
      <point x="677.805" y="668.6"/>
      <point x="686.12" y="668.6" type="curve" smooth="yes"/>
      <point x="688.375" y="668.6" type="line"/>
      <point x="688.375" y="710.0" type="line"/>
      <point x="523.6800000000001" y="710.0" type="line"/>
      <point x="463.015" y="416.6" type="line"/>
      <point x="507.935" y="474.0" type="line"/>
      <point x="476.48" y="710.0" type="line"/>
      <point x="309.83" y="710.0" type="line"/>
      <point x="309.83" y="668.6" type="line"/>
      <point x="313.385" y="668.6" type="line" smooth="yes"/>
      <point x="321.4" y="668.6"/>
      <point x="326.41499999999996" y="665.8"/>
      <point x="326.41499999999996" y="651.8" type="curve" smooth="yes"/>
      <point x="326.41499999999996" y="432.6" type="line" smooth="yes"/>
      <point x="326.41499999999996" y="419.6"/>
      <point x="321.4" y="416.4"/>
      <point x="313.385" y="416.4" type="curve"/>
      <point x="309.83" y="416.4" type="line"/>
    </contour>
    <contour>
      <point x="159.2" y="413.8" type="curve" smooth="yes"/>
      <point x="117.695" y="413.8"/>
      <point x="94.02321188118907" y="445.5946987762111"/>
      <point x="83.63" y="489.2" type="curve"/>
      <point x="33.95" y="489.2" type="line"/>
      <point x="33.95" y="371.0" type="line"/>
      <point x="74.005" y="371.0" type="line"/>
      <point x="79.95" y="454.6" type="line"/>
      <point x="73.50999999999999" y="461.8"/>
      <point x="63.655" y="464.6"/>
      <point x="51.58" y="478.2" type="curve"/>
      <point x="57.445" y="405.0"/>
      <point x="90.9" y="367.6"/>
      <point x="169.435" y="367.6" type="curve" smooth="yes"/>
      <point x="236.43499999999997" y="367.6"/>
      <point x="282.425" y="405.6"/>
      <point x="282.425" y="484.6" type="curve" smooth="yes"/>
      <point x="282.425" y="554.7089655172414"/>
      <point x="244.01817756462754" y="583.1887532964374"/>
      <point x="176.82999999999998" y="602.0" type="curve" smooth="yes"/>
      <point x="153.36189667167142" y="611.397313324256"/>
      <point x="134.07" y="616.3108571428571"/>
      <point x="134.07" y="640.8" type="curve" smooth="yes"/>
      <point x="134.07" y="660.0"/>
      <point x="143.19" y="670.6"/>
      <point x="158.625" y="670.6" type="curve" smooth="yes"/>
      <point x="192.275" y="670.6"/>
      <point x="209.05036648684688" y="646.9191279901364"/>
      <point x="219.14" y="617.8" type="curve"/>
      <point x="264.875" y="617.8" type="line"/>
      <point x="264.875" y="714.4" type="line"/>
      <point x="227.12" y="714.4" type="line"/>
      <point x="218.335" y="644.2" type="line"/>
      <point x="227.765" y="635.4"/>
      <point x="244.29" y="640.6"/>
      <point x="249.235" y="637.4" type="curve"/>
      <point x="234.89499999999998" y="693.0"/>
      <point x="198.45" y="716.8"/>
      <point x="148.63" y="716.8" type="curve" smooth="yes"/>
      <point x="82.24" y="716.8"/>
      <point x="42.195" y="680.4"/>
      <point x="42.195" y="612.6" type="curve" smooth="yes"/>
      <point x="42.195" y="534.5958260869565"/>
      <point x="92.5932573345306" y="511.6149856005798"/>
      <point x="136.165" y="496.0" type="curve" smooth="yes"/>
      <point x="178.10136172157885" y="480.40524270543176"/>
      <point x="188.55" y="472.88"/>
      <point x="188.55" y="448.8" type="curve" smooth="yes"/>
      <point x="188.55" y="425.8"/>
      <point x="177.98" y="413.8"/>
    </contour>
  </outline>
</glyph>
<glyph name="estimated" format="2">
  <advance width="634.2"/>
  <unicode hex="212E"/>
  <outline>
    <contour>
      <point x="137.2" y="153.4" type="line"/>
      <point x="181.35" y="76.4"/>
      <point x="243.9" y="41.0"/>
      <point x="317.1" y="41.0" type="curve" smooth="yes"/>
      <point x="421.72" y="41.0"/>
      <point x="498.68" y="118.8"/>
      <point x="536.585" y="236.0" type="curve"/>
      <point x="584.3" y="236.0" type="line"/>
      <point x="545.9" y="98.0"/>
      <point x="449.4" y="-10.0"/>
      <point x="317.1" y="-10.0" type="curve" smooth="yes"/>
      <point x="159.2" y="-10.0"/>
      <point x="37.4" y="150.0"/>
      <point x="37.4" y="355.0" type="curve" smooth="yes"/>
      <point x="37.4" y="560.0"/>
      <point x="159.2" y="720.0"/>
      <point x="317.1" y="720.0" type="curve" smooth="yes"/>
      <point x="475.0" y="720.0"/>
      <point x="596.8" y="560.0"/>
      <point x="596.8" y="355.0" type="curve"/>
      <point x="104.7" y="355.0" type="line"/>
      <point x="104.7" y="406.0" type="line"/>
      <point x="497.0" y="406.0" type="line"/>
      <point x="497.0" y="559.4" type="line"/>
      <point x="452.85" y="633.2"/>
      <point x="390.3" y="669.0"/>
      <point x="317.1" y="669.0" type="curve" smooth="yes"/>
      <point x="243.9" y="669.0"/>
      <point x="181.545" y="632.8"/>
      <point x="137.2" y="559.2" type="curve"/>
    </contour>
  </outline>
</glyph>
<glyph name="notequal" format="2">
  <advance width="422.8"/>
  <unicode hex="2260"/>
  <outline>
    <contour>
      <point x="269.11" y="634.0" type="line"/>
      <point x="28.810000000000002" y="43.8" type="line"/>
      <point x="138.48499999999999" y="43.8" type="line"/>
      <point x="378.89" y="634.0" type="line"/>
    </contour>
    <component base="equal" xOffset="-66.42" yOffset="1.0"/>
  </outline>
</glyph>
<glyph name="uni27F7" format="2">
  <advance width="980.5"/>
  <unicode hex="27F7"/>
  <outline>
    <contour>
      <point x="796.7" y="335.0" type="line"/>
      <point x="706.4" y="192.0" type="line"/>
      <point x="714.3" y="179.0" type="line"/>
      <point x="939.5" y="346.0" type="line"/>
      <point x="939.5" y="360.0" type="line"/>
      <point x="714.3" y="527.0" type="line"/>
      <point x="706.4" y="514.0" type="line"/>
      <point x="796.7" y="371.0" type="line"/>
      <point x="184.5" y="371.0" type="line"/>
      <point x="274.1" y="514.0" type="line"/>
      <point x="266.2" y="527.0" type="line"/>
      <point x="41.7" y="360.0" type="line"/>
      <point x="41.7" y="346.0" type="line"/>
      <point x="266.2" y="179.0" type="line"/>
      <point x="274.1" y="192.0" type="line"/>
      <point x="184.5" y="335.0" type="line"/>
    </contour>
  </outline>
</glyph>
<glyph name="acute.uc" format="2">
  <advance width="377.5"/>
  <anchor x="155.6" y="727.0" name="_top"/>
  <outline>
    <contour>
      <point x="172.115" y="868.8" type="curve" smooth="yes"/>
      <point x="142.83499999999998" y="786.2" type="line"/>
      <point x="142.83499999999998" y="758.0" type="line"/>
      <point x="200.945" y="758.0" type="line"/>
      <point x="250.925" y="784.6" type="line" smooth="yes"/>
      <point x="310.06" y="806.6"/>
      <point x="333.75" y="835.0232835820896"/>
      <point x="333.75" y="878.6" type="curve" smooth="yes"/>
      <point x="333.75" y="917.0"/>
      <point x="306.08" y="945.6"/>
      <point x="266.37" y="945.6" type="curve" smooth="yes"/>
      <point x="222.475" y="945.6"/>
      <point x="196.45" y="919.4"/>
    </contour>
  </outline>
</glyph>
<glyph name="blackdiamond" format="2">
  <advance width="469.4"/>
  <outline>
    <contour>
      <point x="432.0" y="313.0" type="line"/>
      <point x="234.7" y="574.0" type="line"/>
      <point x="37.4" y="313.0" type="line"/>
      <point x="234.7" y="52.0" type="line"/>
    </contour>
  </outline>
</glyph>
<glyph name="circumflex_tilde.uc" format="2">
  <advance width="377.605"/>
  <anchor x="183.5" y="694.0" name="_top"/>
  <outline>
    <contour>
      <point x="269.65999999999997" y="890.2" type="line"/>
      <point x="351.105" y="775.2" type="line"/>
      <point x="351.105" y="749.2" type="line"/>
      <point x="254.505" y="749.2" type="line"/>
      <point x="133.245" y="826.6" type="line"/>
      <point x="254.87" y="826.6" type="line"/>
      <point x="132.31" y="749.2" type="line"/>
      <point x="43.760000000000005" y="749.2" type="line"/>
      <point x="43.760000000000005" y="775.2" type="line"/>
      <point x="126.355" y="890.2" type="line"/>
    </contour>
    <contour>
      <point x="245.97" y="921.0" type="curve" smooth="yes"/>
      <point x="303.275" y="921.0"/>
      <point x="338.8" y="966.2"/>
      <point x="353.14" y="1047.4" type="curve"/>
      <point x="277.205" y="1075.2" type="line"/>
      <point x="270.311449105822" y="1044.773248153627"/>
      <point x="262.4260638297872" y="1029.8"/>
      <point x="246.005" y="1029.8" type="curve" smooth="yes"/>
      <point x="219.18719512195122" y="1029.8"/>
      <point x="203.7640243902439" y="1075.0"/>
      <point x="146.665" y="1075.0" type="curve" smooth="yes"/>
      <point x="85.415" y="1075.0"/>
      <point x="54.03" y="1030.8"/>
      <point x="40.84" y="949.2" type="curve"/>
      <point x="116.775" y="923.2" type="line"/>
      <point x="122.225" y="953.2"/>
      <point x="130.0569512195122" y="967.4"/>
      <point x="146.285" y="967.4" type="curve" smooth="yes"/>
      <point x="167.75853658536585" y="967.4"/>
      <point x="184.10999999999999" y="921.0"/>
    </contour>
  </outline>
</glyph>
<glyph name="currency.proportional" format="2">
  <advance width="439.73"/>
  <outline>
    <contour>
      <point x="261.855" y="373.0" type="curve" smooth="yes"/>
      <point x="261.855" y="318.8"/>
      <point x="245.8" y="283.6"/>
      <point x="219.865" y="283.6" type="curve" smooth="yes"/>
      <point x="192.63" y="283.6"/>
      <point x="177.76999999999998" y="319.0"/>
      <point x="177.76999999999998" y="373.0" type="curve" smooth="yes"/>
      <point x="177.76999999999998" y="426.4"/>
      <point x="192.63" y="462.6"/>
      <point x="219.865" y="462.6" type="curve" smooth="yes"/>
      <point x="245.8" y="462.6"/>
      <point x="261.855" y="426.4"/>
    </contour>
    <contour>
      <point x="48.705" y="373.0" type="curve" smooth="yes"/>
      <point x="48.705" y="246.2"/>
      <point x="122.78999999999999" y="155.6"/>
      <point x="219.865" y="155.6" type="curve" smooth="yes"/>
      <point x="317.18" y="155.6"/>
      <point x="390.92" y="246.2"/>
      <point x="390.92" y="373.0" type="curve" smooth="yes"/>
      <point x="390.92" y="500.0"/>
      <point x="317.18" y="590.6"/>
      <point x="219.865" y="590.6" type="curve" smooth="yes"/>
      <point x="122.78999999999999" y="590.6"/>
      <point x="48.705" y="500.0"/>
    </contour>
    <contour>
      <point x="10.57" y="566.6" type="line"/>
      <point x="94.5" y="458.8" type="line"/>
      <point x="182.555" y="538.8" type="line"/>
      <point x="91.255" y="650.4" type="line"/>
    </contour>
    <contour>
      <point x="429.055" y="566.6" type="line"/>
      <point x="348.37" y="650.4" type="line"/>
      <point x="257.07" y="538.8" type="line"/>
      <point x="344.425" y="458.8" type="line"/>
    </contour>
    <contour>
      <point x="10.57" y="179.6" type="line"/>
      <point x="91.255" y="95.8" type="line"/>
      <point x="181.865" y="208.6" type="line"/>
      <point x="94.5" y="287.4" type="line"/>
    </contour>
    <contour>
      <point x="429.055" y="179.6" type="line"/>
      <point x="344.425" y="287.4" type="line"/>
      <point x="257.76" y="208.6" type="line"/>
      <point x="348.37" y="95.8" type="line"/>
    </contour>
  </outline>
</glyph>
<glyph name="f_i.alt" format="2">
  <advance width="493.4"/>
  <outline>
    <contour>
      <point x="21.0" y="518.0" type="line"/>
      <point x="21.0" y="486.0" type="line"/>
      <point x="317.1" y="486.0" type="line"/>
      <point x="317.1" y="518.0" type="line"/>
    </contour>
    <contour>
      <point x="230.1" y="724.0" type="curve" smooth="yes"/>
      <point x="254.4" y="724.0"/>
      <point x="270.5" y="717.0"/>
      <point x="279.0" y="713.0" type="curve"/>
      <point x="279.0" y="749.0" type="line"/>
      <point x="270.8" y="754.0"/>
      <point x="251.1" y="758.0"/>
      <point x="228.8" y="758.0" type="curve" smooth="yes"/>
      <point x="144.19304812834224" y="758.0"/>
      <point x="95.2" y="697.0"/>
      <point x="95.2" y="582.0" type="curve" smooth="yes"/>
      <point x="95.2" y="66.0" type="line" smooth="yes"/>
      <point x="95.2" y="37.0"/>
      <point x="68.6" y="30.0"/>
      <point x="25.6" y="30.0" type="curve" smooth="yes"/>
      <point x="21.0" y="30.0" type="line"/>
      <point x="21.0" y="0.0" type="line"/>
      <point x="241.6" y="0.0" type="line"/>
      <point x="241.6" y="30.0" type="line"/>
      <point x="237.0" y="30.0" type="line" smooth="yes"/>
      <point x="195.0" y="30.0"/>
      <point x="162.5" y="33.0"/>
      <point x="162.5" y="54.0" type="curve" smooth="yes"/>
      <point x="162.5" y="582.0" type="line" smooth="yes"/>
      <point x="162.5" y="683.0"/>
      <point x="179.05" y="724.0"/>
    </contour>
    <contour>
      <point x="382.1" y="642.0" type="curve" smooth="yes"/>
      <point x="408.7" y="642.0"/>
      <point x="428.4" y="665.0"/>
      <point x="428.4" y="703.0" type="curve" smooth="yes"/>
      <point x="428.4" y="740.0"/>
      <point x="408.7" y="763.0"/>
      <point x="382.1" y="763.0" type="curve" smooth="yes"/>
      <point x="355.5" y="763.0"/>
      <point x="335.5" y="740.0"/>
      <point x="335.5" y="703.0" type="curve" smooth="yes"/>
      <point x="335.5" y="665.0"/>
      <point x="355.5" y="642.0"/>
    </contour>
    <contour>
      <point x="476.0" y="0.0" type="line"/>
      <point x="476.0" y="30.0" type="line"/>
      <point x="474.0" y="30.0" type="line" smooth="yes"/>
      <point x="441.2" y="30.0"/>
      <point x="416.9" y="37.0"/>
      <point x="416.9" y="66.0" type="curve" smooth="yes"/>
      <point x="416.9" y="518.0" type="line"/>
      <point x="281.0" y="518.0" type="line"/>
      <point x="281.0" y="486.0" type="line"/>
      <point x="286.9" y="486.0" type="line" smooth="yes"/>
      <point x="323.0" y="486.0"/>
      <point x="349.6" y="472.0"/>
      <point x="349.6" y="443.0" type="curve" smooth="yes"/>
      <point x="349.6" y="66.0" type="line" smooth="yes"/>
      <point x="349.6" y="37.0"/>
      <point x="325.0" y="30.0"/>
      <point x="291.5" y="30.0" type="curve" smooth="yes"/>
      <point x="290.2" y="30.0" type="line"/>
      <point x="290.2" y="0.0" type="line"/>
    </contour>
  </outline>
</glyph>
<glyph name="kgreenlandic" format="2">
  <advance width="564.3199999999999"/>
  <outline>
    <contour>
      <point x="554.4300000000001" y="0.0" type="line"/>
      <point x="554.4300000000001" y="66.80000000000001" type="line"/>
      <point x="552.98" y="66.80000000000001" type="line"/>
      <point x="532.005" y="66.80000000000001"/>
      <point x="516.525" y="76.2"/>
      <point x="506.90999999999997" y="98.80000000000001" type="curve" smooth="yes"/>
      <point x="389.79999999999995" y="366.0" type="line"/>
      <point x="341.235" y="274.0" type="line"/>
      <point x="453.21500000000003" y="408.6" type="line" smooth="yes"/>
      <point x="469.085" y="431.0"/>
      <point x="489.46500000000003" y="448.0"/>
      <point x="520.285" y="448.0" type="curve"/>
      <point x="521.63" y="448.0" type="line"/>
      <point x="521.63" y="514.8" type="line"/>
      <point x="313.59" y="514.8" type="line"/>
      <point x="313.59" y="448.0" type="line"/>
      <point x="315.155" y="448.0" type="line" smooth="yes"/>
      <point x="331.67" y="448.0"/>
      <point x="366.355" y="443.8"/>
      <point x="366.355" y="428.8" type="curve"/>
      <point x="248.935" y="280.6" type="line"/>
      <point x="248.935" y="252.4" type="line"/>
      <point x="297.285" y="75.6" type="line"/>
      <point x="297.285" y="69.4"/>
      <point x="287.395" y="66.80000000000001"/>
      <point x="281.03499999999997" y="66.80000000000001" type="curve" smooth="yes"/>
      <point x="278.39" y="66.80000000000001" type="line"/>
      <point x="278.39" y="0.0" type="line"/>
    </contour>
    <contour>
      <point x="9.880000000000003" y="0.0" type="line"/>
      <point x="251.10999999999999" y="0.0" type="line"/>
      <point x="251.10999999999999" y="66.80000000000001" type="line"/>
      <point x="248.46499999999997" y="66.80000000000001" type="line" smooth="yes"/>
      <point x="244.21999999999997" y="66.80000000000001"/>
      <point x="233.535" y="69.2"/>
      <point x="233.535" y="75.2" type="curve"/>
      <point x="233.535" y="514.8" type="line"/>
      <point x="9.880000000000003" y="514.8" type="line"/>
      <point x="9.880000000000003" y="444.8" type="line"/>
      <point x="14.985000000000003" y="442.8" type="line" smooth="yes"/>
      <point x="27.235000000000007" y="436.4"/>
      <point x="30.305" y="431.6"/>
      <point x="30.305" y="413.0" type="curve" smooth="yes"/>
      <point x="30.305" y="94.80000000000001" type="line"/>
      <point x="30.305" y="73.0"/>
      <point x="21.725" y="66.80000000000001"/>
      <point x="10.880000000000003" y="66.80000000000001" type="curve" smooth="yes"/>
      <point x="9.880000000000003" y="66.80000000000001" type="line"/>
    </contour>
  </outline>
</glyph>
<glyph name="rupeeIndian.proportional" format="2">
  <advance width="454.875"/>
  <outline>
    <contour>
      <point x="33.295" y="516.6" type="line"/>
      <point x="33.295" y="431.8" type="line"/>
      <point x="433.07" y="431.8" type="line"/>
      <point x="433.07" y="516.6" type="line"/>
    </contour>
    <contour>
      <point x="93.015" y="259.6" type="line"/>
      <point x="122.87" y="259.6" type="line" smooth="yes"/>
      <point x="270.005" y="259.6"/>
      <point x="367.275" y="343.2"/>
      <point x="367.275" y="457.6" type="curve" smooth="yes"/>
      <point x="367.275" y="569.2"/>
      <point x="323.32" y="641.0"/>
      <point x="175.53" y="650.0" type="curve"/>
      <point x="160.35" y="683.6"/>
      <point x="69.235" y="688.8"/>
      <point x="153.565" y="626.8" type="curve"/>
      <point x="433.07" y="626.8" type="line"/>
      <point x="433.07" y="710.0" type="line"/>
      <point x="33.295" y="710.0" type="line"/>
      <point x="33.295" y="623.6" type="line"/>
      <point x="86.725" y="623.6" type="line" smooth="yes"/>
      <point x="171.53000000000003" y="623.6"/>
      <point x="194.025" y="568.2"/>
      <point x="194.025" y="475.2" type="curve" smooth="yes"/>
      <point x="194.025" y="384.0"/>
      <point x="172.185" y="325.6"/>
      <point x="81.355" y="325.6" type="curve" smooth="yes"/>
      <point x="33.295" y="325.6" type="line"/>
      <point x="33.295" y="254.4" type="line"/>
      <point x="200.76500000000001" y="0.0" type="line"/>
      <point x="415.255" y="0.0" type="line"/>
      <point x="415.255" y="70.0" type="line"/>
      <point x="405.71" y="70.0" type="line" smooth="yes"/>
      <point x="385.59499999999997" y="70.0"/>
      <point x="374.17499999999995" y="79.2"/>
      <point x="360.455" y="101.80000000000001" type="curve" smooth="yes"/>
      <point x="216.09" y="300.2" type="line"/>
    </contour>
  </outline>
</glyph>
<glyph name="two.lin" format="2">
  <advance width="422.8"/>
  <outline>
    <contour>
      <point x="204.54500000000002" y="720.0" type="curve" smooth="yes"/>
      <point x="335.12" y="720.0"/>
      <point x="398.545" y="648.6"/>
      <point x="398.545" y="521.4" type="curve" smooth="yes"/>
      <point x="398.545" y="344.8"/>
      <point x="229.63041396825" y="212.77261085290002"/>
      <point x="96.625" y="112.0" type="curve"/>
      <point x="78.143578432784" y="113.192385621856"/>
      <point x="80.9924193381225" y="136.398458807366"/>
      <point x="81.595" y="142.4" type="curve"/>
      <point x="241.37" y="142.4" type="line" smooth="yes"/>
      <point x="298.09" y="142.4"/>
      <point x="317.4" y="150.4"/>
      <point x="321.805" y="188.4" type="curve" smooth="yes"/>
      <point x="328.21" y="243.8" type="line"/>
      <point x="404.56" y="243.8" type="line"/>
      <point x="404.56" y="0.0" type="line"/>
      <point x="11.145" y="0.0" type="line"/>
      <point x="11.145" y="147.8" type="line"/>
      <point x="131.21" y="268.2"/>
      <point x="211.38" y="355.6"/>
      <point x="211.38" y="524.0" type="curve" smooth="yes"/>
      <point x="211.38" y="608.8"/>
      <point x="198.70499999999998" y="636.4"/>
      <point x="175.29" y="636.4" type="curve" smooth="yes"/>
      <point x="157.75" y="636.4"/>
      <point x="146.49" y="611.8"/>
      <point x="137.865" y="585.6" type="curve"/>
      <point x="134.53" y="590.0"/>
      <point x="127.02" y="642.8"/>
      <point x="153.45999999999998" y="645.6" type="curve"/>
      <point x="153.45999999999998" y="516.8" type="line"/>
      <point x="14.71" y="516.8" type="line"/>
      <point x="14.71" y="645.6" type="line"/>
      <point x="47.095" y="681.2"/>
      <point x="115.625" y="720.0"/>
    </contour>
  </outline>
</glyph>
